<?xml version="1.0" encoding="utf-8"?>
<!-- Generator: Adobe Illustrator 16.0.0, SVG Export Plug-In . SVG Version: 6.00 Build 0)  -->
<!DOCTYPE svg PUBLIC "-//W3C//DTD SVG 1.1//EN" "http://www.w3.org/Graphics/SVG/1.1/DTD/svg11.dtd">
<svg version="1.1" id="Layer_1" xmlns="http://www.w3.org/2000/svg" xmlns:xlink="http://www.w3.org/1999/xlink" x="0px" y="0px"
	 width="612px" height="126.144px" viewBox="0 0 612 126.144" enable-background="new 0 0 612 126.144" xml:space="preserve">
<g id="type">
	<path fill-rule="evenodd" clip-rule="evenodd" fill="#030303" d="M9.031,26.647c1.684-1.165,3.632-1.018,5.53-1.107
		c3.864-0.182,7.707-0.16,11.536,0.599C37.068,28.313,44.619,38.862,44.137,49.7c-0.265,5.965-2.312,11.227-6.006,15.88
		c-0.85,1.071-0.848,1.07,0.042,2.147c3.917,4.745,6.089,10.175,6.144,16.342c0.102,11.357-7.893,20.702-19.116,22.541
		c-5.147,0.843-10.296,0.716-15.455,0.214c-0.021-4.435-0.219-8.87-0.292-13.3C9.26,81.666,9.393,69.801,9.375,57.938
		c-0.001-0.679,0.272-1.437-0.345-2.023C9.031,46.159,9.031,36.403,9.031,26.647z M21.324,48.805c-0.035,0-0.068,0-0.104,0
		c0,2.792,0.123,5.59-0.043,8.372c-0.109,1.815,1.52,3.294,3.582,2.724c0.818-0.228,1.552-0.593,2.22-1.091
		c3.554-2.642,5.353-6.188,5.007-10.606c-0.358-4.578-2.831-7.822-6.933-9.833c-0.423-0.208-0.875-0.378-1.333-0.488
		c-1.322-0.316-2.07,0.168-2.292,1.487c-0.086,0.524-0.098,1.065-0.101,1.598C21.318,43.58,21.324,46.192,21.324,48.805z
		 M21.282,84.089c0.015,0,0.03,0,0.045,0c0,2.849-0.032,5.697,0.01,8.545c0.032,2.157,0.545,2.488,2.652,1.881
		c4.484-1.293,7.833-5.496,8.123-10.199c0.265-4.305-2.749-9.007-6.891-10.731c-0.655-0.274-1.321-0.539-2.054-0.516
		c-1.011,0.031-1.538,0.427-1.751,1.42c-0.111,0.516-0.126,1.059-0.129,1.59C21.275,78.748,21.282,81.419,21.282,84.089z"/>
	<path fill-rule="evenodd" clip-rule="evenodd" fill="#040404" d="M513.725,88.039c-0.645,0.52-0.344,1.31-0.528,1.959
		c-2.766,9.711-12.472,17.859-23.452,17.315c-9.311-0.46-18.469-7.349-21.274-16.203c-0.484-1.528-0.871-3.086-0.508-4.727
		c0.456-2.062,1.869-3.296,3.989-3.396c2.405-0.112,4.422,0.799,6.09,2.463c0.878,0.877,1.633,1.883,2.42,2.851
		c0.785,0.97,1.512,1.985,2.311,2.943c2.355,2.823,5.388,3.943,9.03,3.593c5.009-0.48,9.182-4.221,9.979-8.982
		c0.252-1.507,0.034-2.966-0.389-4.399c-1.553-5.27-6.656-8.741-11.267-8.899c-10.769-0.371-20.007-8.116-22.576-18.565
		c-1.133-4.613-0.689-9.124,1.22-13.419c3.53-7.953,9.435-13.135,18.117-14.795c3.072-0.588,6.172-0.379,9.175,0.521
		c8.006,2.401,13.679,7.389,16.772,15.229c0.384,0.973,0.253,2.083,0.892,2.967c0,0.833,0,1.666,0,2.499
		c-0.437,0.652-0.47,1.606-1.512,1.793c-2.599,0.467-5.193,0.664-7.759-0.109c-1.68-0.506-2.902-1.557-3.489-3.278
		c-1.35-3.963-4.3-6.166-8.196-7.179c-5.934-1.542-11.199,1.465-12.746,7.204c-1.354,5.028,0.404,12.12,7.733,14.158
		c2.122,0.59,4.286,0.927,6.436,1.35c9.727,1.91,15.812,7.832,18.915,17.09c0.28,0.836-0.025,1.793,0.618,2.521
		C513.725,83.042,513.725,85.54,513.725,88.039z"/>
	<path fill-rule="evenodd" clip-rule="evenodd" fill="#040404" d="M9.031,55.915c0.617,0.587,0.343,1.345,0.345,2.023
		C9.393,69.801,9.26,81.666,9.455,93.524c0.072,4.43,0.271,8.865,0.292,13.3c-0.238,0.044-0.477,0.088-0.715,0.133
		C9.031,89.942,9.031,72.928,9.031,55.915z"/>
	<path fill-rule="evenodd" clip-rule="evenodd" fill="#040404" d="M371.969,25.344c18.116,0.055,35.156,12.583,40.156,29.277
		c1.159,3.87,0.458,5.262-3.38,6.588c-1.407,0.487-2.858,0.825-4.366,0.738c-2.112-0.124-3.206-0.918-3.71-2.938
		c-2.635-10.577-13.351-20.861-27.259-21.529c-6.609-0.318-12.551,1.807-17.71,5.898c-7.545,5.983-11.944,13.71-11.776,23.488
		c0.148,8.691,4.062,15.771,10.568,21.396c5.369,4.645,11.631,7.059,18.797,6.882c12.086-0.296,23.827-9.319,27.224-20.905
		c0.868-2.963,2.13-3.782,5.225-3.469c1.866,0.188,3.587,0.785,5.233,1.646c1.382,0.723,1.961,1.864,1.712,3.389
		c-0.124,0.758-0.318,1.512-0.553,2.244c-3.688,11.513-11.279,19.622-21.938,25.009c-4.991,2.521-10.309,3.957-15.898,4.226
		c-10.634,0.514-19.851-3.085-27.779-10.01c-7.688-6.714-12.604-15.082-14.268-25.229c-1.219-7.433-0.146-14.604,3.004-21.391
		c5.66-12.193,14.803-20.465,27.884-24.132C366.133,25.682,369.205,25.429,371.969,25.344z"/>
	<path fill-rule="evenodd" clip-rule="evenodd" fill="#030303" d="M290.312,66.256c0-12.19-0.001-24.381,0.001-36.571
		c0-3.426,0.647-4.094,4.03-4.098c9.397-0.013,18.792-0.015,28.187-0.015c2.103,0,2.864,0.591,3.466,2.58
		c0.35,1.158,0.367,2.34,0.367,3.531c0.006,20.932,0.014,41.864,0.02,62.795c0.001,2.558,0.009,5.115,0.001,7.672
		c-0.01,2.812-1.604,4.718-4.376,5.167c-2.273,0.367-4.504,0.006-6.705-0.552c-1.117-0.283-1.668-1.088-1.736-2.213
		c-0.035-0.594-0.016-1.189-0.008-1.783c0.107-8.146,0.219-16.292,0.321-24.438c0.01-0.828,0.048-1.655-0.216-2.472
		c-0.772-2.393-2.858-4.064-5.248-4.165c-2.375-0.1-4.685,1.388-5.627,3.652c-0.58,1.396-0.749,2.867-0.716,4.366
		c0.105,4.756,0.221,9.511,0.325,14.268c0.058,2.615-0.076,5.25,0.195,7.843c0.411,3.938-2.575,5.689-5.496,5.697
		c-1.792,0.004-3.535-0.411-5.247-0.935c-0.973-0.297-1.451-0.989-1.515-1.976c-0.034-0.534-0.023-1.069-0.023-1.605
		C290.312,90.755,290.312,78.506,290.312,66.256z M313.719,49.128c0.002,0,0.002,0,0.003,0c0-0.476,0-0.951,0-1.426
		c0.001-2.435,0.026-4.871-0.005-7.305c-0.021-1.594-0.418-2.241-1.694-2.565c-1.905-0.485-3.853-0.758-5.822-0.47
		c-2.495,0.364-3.991,2.126-3.994,4.639c-0.001,0.654,0.025,1.306,0.034,1.96c0.055,4.394,0.095,8.788,0.167,13.182
		c0.037,2.21,0.765,3.051,2.963,3.145c2.192,0.093,4.391-0.011,6.587-0.033c0.998-0.011,1.529-0.558,1.649-1.516
		c0.066-0.528,0.104-1.063,0.107-1.595C313.725,54.472,313.719,51.8,313.719,49.128z"/>
	<path fill-rule="evenodd" clip-rule="evenodd" fill="#040404" d="M123.383,66.921c0,12.669,0,25.339-0.001,38.009
		c0,1.697-0.007,1.698-1.623,2.086c-1.973,0.471-3.941,0.865-5.985,0.354c-3.017-0.756-4.657-2.804-4.587-5.896
		c0.155-6.897,0.323-13.796,0.506-20.693c0.038-1.373-0.01-2.738-0.231-4.09c-0.335-2.049-1.287-3.707-3.247-4.603
		c-3.504-1.604-7.391,0.823-7.488,4.715c-0.069,2.794,0,5.591,0.009,8.386c0.019,5.949,0.04,11.896,0.055,17.845
		c0,0.596,0.022,1.196-0.055,1.783c-0.186,1.445-0.868,2.12-2.346,2.169c-2.376,0.08-4.758,0.119-7.135,0.077
		c-1.818-0.031-2.408-0.683-2.533-2.514c-0.032-0.474-0.012-0.951-0.012-1.428c-0.001-24.565-0.001-49.132,0-73.699
		c0-3.613,0.228-3.842,3.814-3.842c9.041,0,18.083,0.001,27.124,0.001c0.476,0,0.953-0.015,1.428,0.007
		c1.624,0.077,2.234,0.636,2.413,2.253c0.065,0.59,0.034,1.188,0.034,1.783c0.001,12.432,0.001,24.864,0.001,37.297
		C123.477,66.921,123.43,66.921,123.383,66.921z M111.457,48.856c-0.002,0-0.004,0-0.006,0c0-3.034,0.023-6.068-0.01-9.102
		c-0.016-1.529-0.445-2.059-1.814-2.099c-2.377-0.067-4.758-0.055-7.136,0.002c-1.129,0.029-1.554,0.517-1.696,1.662
		c-0.051,0.411-0.034,0.832-0.034,1.247c-0.002,5.592-0.002,11.184-0.001,16.776c0,0.416-0.019,0.837,0.033,1.247
		c0.139,1.142,0.568,1.638,1.696,1.664c2.437,0.055,4.876,0.018,7.316,0.004c0.924-0.005,1.406-0.573,1.569-1.414
		c0.09-0.461,0.079-0.946,0.08-1.422C111.459,54.567,111.457,51.712,111.457,48.856z"/>
	<path fill-rule="evenodd" clip-rule="evenodd" fill="#040404" d="M430.719,55.991c9.872-9.628,19.766-19.28,29.648-28.918
		c0.619,0.143,0.694,0.673,0.885,1.076c1.68,3.576,1.592,7.259,0.552,10.964c-1.094,3.9-3.1,7.312-5.756,10.349
		c-2.118,2.425-4.495,4.584-6.901,6.712c-2.939,2.601-5.924,5.155-8.529,8.105c-0.393,0.445-0.749,0.924-1.153,1.359
		c-0.396,0.43-0.439,0.798,0.035,1.201c0.316,0.27,0.588,0.59,0.88,0.887c12.072,12.314,24.146,24.628,36.218,36.942
		c0.368,0.377,0.719,0.771,1.201,1.29c-2.366,1.197-4.795,1.608-7.256,1.622c-5.842,0.029-10.937-1.906-15.096-6.111
		c-7.693-7.782-15.394-15.556-23.102-23.32c-0.442-0.446-0.797-1.022-1.601-1.296c-0.162,1.096-0.356,2.124-0.459,3.161
		c-0.719,7.176-0.878,14.356-0.161,21.543c0.125,1.245,0.26,2.492-0.541,3.611c-1.261,1.769-3.059,2.396-5.119,2.352
		c-1.668-0.037-3.292-0.416-4.901-0.867c-1.141-0.319-1.656-1.086-1.747-2.195c-0.043-0.533-0.03-1.069-0.03-1.604
		c-0.002-24.382-0.002-48.764-0.002-73.146c0-0.417-0.019-0.834,0.012-1.248c0.125-1.593,0.601-2.194,2.164-2.645
		c1.665-0.478,3.367-0.727,5.106-0.66c3.474,0.134,5.288,2.191,5.039,5.657c-0.581,8.083-0.423,16.161,0.18,24.236
		C430.305,55.336,430.275,55.65,430.719,55.991z"/>
	<path fill-rule="evenodd" clip-rule="evenodd" fill="#040404" d="M86.813,106.06c-2.708,0.897-5.292,1.556-8.008,1.304
		c-3.36-0.309-5.795-1.849-6.943-5.202c-2.713-7.929-6.006-15.624-9.686-23.151c-0.259-0.529-0.551-1.044-0.836-1.561
		c-0.021-0.037-0.109-0.035-0.252-0.076c-0.36,0.567-0.194,1.223-0.201,1.826c-0.087,8.088-0.146,16.177-0.226,24.266
		c-0.034,3.334-0.271,3.558-3.53,3.56c-2.021,0.001-4.045,0.023-6.065-0.009c-1.795-0.029-2.305-0.558-2.382-2.351
		c-0.017-0.414-0.006-0.832-0.006-1.247c0-24.803,0-49.604,0-74.405c0-0.416-0.021-0.834,0.009-1.248
		c0.093-1.252,0.436-1.728,1.69-1.896c6.181-0.823,12.335-0.965,18.332,1.134c9.028,3.16,15.542,12.152,15.474,21.687
		c-0.055,7.783-3.282,14.135-9.446,18.923c-2.496,1.94-2.778,2.673-1.533,5.711c2.319,5.658,4.687,11.297,7.035,16.942
		C82.405,95.471,84.572,100.675,86.813,106.06z M60.731,48.691c-0.004,0-0.008,0-0.013,0c0,2.733-0.019,5.465,0.006,8.198
		c0.02,2.242,1.062,3.068,3.304,2.69c1.577-0.267,2.899-1.055,4.055-2.103c6.805-6.168,3.795-15.85-3.162-19.076
		c-0.32-0.148-0.667-0.268-1.011-0.328c-2.085-0.363-3.245,0.414-3.194,2.599C60.778,43.343,60.731,46.018,60.731,48.691z"/>
	<path fill-rule="evenodd" clip-rule="evenodd" fill="#040404" d="M204.559,107.407c-9.821-0.08-18.976-6.318-22.202-15.133
		c-0.873-2.389-1.209-4.83-0.957-7.355c0.054-0.523,0.011-1.071,0.776-1.182c2.735-0.401,5.453-0.472,8.116,0.406
		c1.847,0.609,3.246,1.761,3.86,3.659c1.474,4.551,7.249,8.292,13.59,6.825c6.426-1.484,8.116-7.658,7.435-11.939
		c-0.847-5.318-3.847-8.457-9.17-9.587c-1.916-0.405-3.874-0.609-5.791-1.011c-9.881-2.065-16.015-8.26-18.737-17.746
		c-2.581-8.994,1.031-18.318,8.932-24.198c15.661-11.654,34.252-0.131,36.97,14.75c0.451,2.477,0.596,3.587-2.869,4.032
		c-2.082,0.268-4.142,0.394-6.19-0.162c-1.781-0.483-3.089-1.515-3.625-3.34c-1.545-5.268-8.428-9.004-14.752-6.926
		c-5.499,1.808-7.063,7.215-6.602,11.207c0.704,6.086,4.152,9.452,10.551,10.479c2.051,0.329,4.121,0.554,6.142,1.064
		c10.031,2.533,17.783,12.508,17.738,22.835c-0.049,11.233-9.074,21.589-20.19,23.139
		C206.586,107.362,205.567,107.349,204.559,107.407z"/>
	<path fill-rule="evenodd" clip-rule="evenodd" fill="#040404" d="M163.355,48.948c-0.179-0.975-0.29-1.796-0.482-2.598
		c-1.197-4.994-5.863-8.772-10.815-8.78c-5.085-0.006-9.832,3.598-11.116,8.441c-1.533,5.78,2.18,12.13,8.069,13.805
		c1.894,0.539,3.847,0.779,5.789,1.007c9.213,1.083,17.414,8.547,19.802,18.181c2.231,9.006-1.492,18.299-9.483,24.032
		c-9.742,6.987-22.362,5.48-30.6-3.66c-3.015-3.347-4.991-7.207-5.768-11.664c-0.461-2.641,0.32-3.827,2.976-4.196
		c2.012-0.279,4.043-0.236,6.019,0.325c1.756,0.497,3.075,1.485,3.595,3.356c1.584,5.699,9.005,9.131,14.802,7.051
		c3.583-1.285,5.568-3.977,6.265-7.6c0.492-2.55,0.223-5.082-0.86-7.503c-1.505-3.367-4.156-5.272-7.663-6.051
		c-1.911-0.425-3.863-0.667-5.788-1.029c-10.027-1.885-16.226-8.081-19.082-17.596c-2.705-9.014,0.795-18.374,8.765-24.216
		c16.16-11.847,33.783-0.201,36.844,14.344c0.232,1.104,0.406,2.22,0.421,3.358c0.008,0.622-0.082,1.008-0.846,1.004
		C170.58,48.936,166.963,48.948,163.355,48.948z"/>
	<path fill-rule="evenodd" clip-rule="evenodd" fill="#030303" d="M279.914,37.726c-0.321,0.673-0.168,1.396-0.168,2.091
		c-0.056,20.751-0.099,41.502-0.144,62.254c-0.001,0.653,0.004,1.308-0.005,1.962c-0.03,1.949-0.327,2.363-2.24,2.823
		c-1.673,0.4-3.354,0.822-5.103,0.602c-3.173-0.399-4.761-2.167-4.75-5.334c0.068-20.038,0.145-40.076,0.213-60.113
		c0.003-0.652,0.024-1.314-0.07-1.957c-0.245-1.674-0.656-2.04-2.363-2.265c-1.663-0.219-3.104-1.532-3.504-3.355
		c-0.523-2.385-0.145-4.732,0.577-7.021c0.385-1.223,1.377-1.748,2.598-1.821c0.949-0.058,1.902-0.039,2.853-0.037
		c4.816,0.006,9.632,0.013,14.448,0.029c2.842,0.01,3.338,0.41,3.921,3.247c0.276,1.339,0.491,2.692,0.345,4.069
		C286.109,36.834,283.747,38.57,279.914,37.726z"/>
</g>
<g id="tildas">
	<path fill-rule="evenodd" clip-rule="evenodd" fill="#181817" d="M602.97,27.681c-0.033,4.255-0.969,8.675-3.962,12.449
		c-2.527,3.188-5.925,5.137-9.634,6.607c-4.871,1.931-9.98,2.815-15.161,3.378c-5.753,0.625-11.545,0.792-17.29,1.508
		c-6.665,0.83-13.157,2.251-19.038,5.705c-1.645,0.966-3.162,2.103-4.594,3.36c-0.613,0.538-1.283,1.162-2.156,0.751
		c-0.889-0.418-0.919-1.35-0.892-2.196c0.2-6.261,1.871-12.067,5.51-17.218c2.423-3.431,5.9-5.386,9.797-6.691
		c4.235-1.418,8.637-2.028,13.031-2.665c6.349-0.919,12.761-0.936,19.145-1.361c8.893-0.594,15.678-4.898,20.477-12.372
		c0.409-0.637,0.8-1.279,1.421-1.74c1.004-0.745,1.749-0.507,2.052,0.691C602.452,20.957,602.946,24.069,602.97,27.681z
		 M599.839,22.303c-1.149,1.392-2.287,2.752-3.507,4.047c-3.694,3.923-8.018,6.472-13.577,6.688
		c-3.54,0.138-7.069,0.552-10.604,0.862c-4.812,0.42-9.623,0.849-14.434,1.293c-3.503,0.323-6.974,0.859-10.31,2.022
		c-4.457,1.555-8.305,3.958-10.85,8.081c-1.803,2.922-2.58,6.195-3.131,9.532c-0.134,0.817-0.419,1.627-0.312,2.572
		c0.992-0.945,1.943-1.759,3.016-2.42c1.094-0.674,2.247-1.225,3.432-1.715c4.145-1.713,8.487-2.666,12.901-3.303
		c5.448-0.786,10.948-1.047,16.429-1.51c4.395-0.371,8.769-0.856,13.068-1.867c4.165-0.979,8.202-2.29,11.752-4.783
		c3.138-2.205,5.344-5.048,5.955-8.926C600.22,29.375,599.952,25.851,599.839,22.303z"/>
	<path fill-rule="evenodd" clip-rule="evenodd" fill="#181817" d="M601.841,49.251c-0.054,4.692-0.554,8.685-2.376,12.417
		c-2.176,4.455-5.878,7.132-10.354,8.912c-4.322,1.72-8.867,2.453-13.446,3.023c-8.373,1.044-16.793,1.719-25.128,3.049
		c-5.579,0.892-10.97,2.391-15.705,5.666c-0.804,0.555-1.536,1.218-2.428,1.641c-1.552,0.737-2.7,0.083-2.609-1.63
		c0.329-6.155,1.721-11.99,5.47-17.056c3.04-4.106,7.262-6.244,12.148-7.273c3.862-0.813,7.789-1.164,11.695-1.664
		c5.68-0.728,11.367-1.407,17.051-2.122c3.631-0.456,7.265-0.898,10.886-1.423c2.648-0.383,5.169-1.176,7.38-2.766
		c1.416-1.018,2.508-2.295,3.219-3.893c0.285-0.638,0.553-1.29,1.059-1.794c0.533-0.531,1.185-0.78,1.915-0.549
		c0.678,0.215,0.871,0.829,0.924,1.465C601.67,46.788,601.772,48.321,601.841,49.251z M532.275,81.032
		c0.466-0.245,0.948-0.463,1.396-0.738c5.609-3.452,11.616-5.677,18.24-6.188c3.614-0.279,7.21-0.794,10.812-1.222
		c4.016-0.476,8.028-0.984,12.046-1.458c3.599-0.424,7.182-0.942,10.651-2.027c8.115-2.535,13.336-7.625,14.343-16.386
		c0.209-1.817,0.027-3.612-0.412-5.453c-0.104,0.126-0.169,0.181-0.205,0.25c-1.628,3.074-4.191,5.014-7.44,6.102
		c-3.656,1.224-7.49,1.423-11.271,1.907c-3.929,0.504-7.868,0.933-11.801,1.403c-3.573,0.427-7.146,0.856-10.717,1.302
		c-3.733,0.465-7.451,1.005-11.05,2.165c-4.985,1.607-9.078,4.344-11.559,9.124c-1.808,3.483-2.646,7.246-3.165,11.098
		c0.005,0.07,0.01,0.142,0.015,0.212C532.197,81.092,532.236,81.062,532.275,81.032z"/>
	<path fill-rule="evenodd" clip-rule="evenodd" fill="#E1D930" d="M599.839,22.303c0.113,3.548,0.381,7.072-0.17,10.573
		c-0.611,3.878-2.817,6.721-5.955,8.926c-3.55,2.494-7.587,3.804-11.752,4.783c-4.3,1.011-8.674,1.496-13.068,1.867
		c-5.48,0.463-10.98,0.724-16.429,1.51c-4.414,0.637-8.757,1.59-12.901,3.303c-1.185,0.49-2.338,1.041-3.432,1.715
		c-1.072,0.661-2.023,1.475-3.016,2.42c-0.107-0.945,0.178-1.755,0.312-2.572c0.551-3.337,1.328-6.609,3.131-9.532
		c2.545-4.122,6.393-6.526,10.85-8.081c3.336-1.164,6.807-1.699,10.31-2.022c4.811-0.444,9.622-0.873,14.434-1.293
		c3.534-0.31,7.063-0.724,10.604-0.862c5.56-0.216,9.883-2.765,13.577-6.688C597.552,25.055,598.689,23.695,599.839,22.303z"/>
	<path fill-rule="evenodd" clip-rule="evenodd" fill="#E1D930" d="M532.144,80.91c0.519-3.852,1.357-7.614,3.165-11.098
		c2.48-4.78,6.573-7.517,11.559-9.124c3.599-1.16,7.316-1.7,11.05-2.165c3.571-0.445,7.144-0.875,10.717-1.302
		c3.933-0.471,7.872-0.899,11.801-1.403c3.781-0.484,7.615-0.684,11.271-1.907c3.249-1.088,5.812-3.027,7.44-6.102
		c0.036-0.069,0.101-0.124,0.205-0.25c0.439,1.84,0.621,3.635,0.412,5.453c-1.007,8.761-6.228,13.851-14.343,16.386
		c-3.47,1.085-7.053,1.604-10.651,2.027c-4.018,0.474-8.03,0.982-12.046,1.458c-3.603,0.428-7.198,0.942-10.812,1.222
		c-6.624,0.512-12.631,2.736-18.24,6.188c-0.447,0.275-0.93,0.493-1.396,0.738C532.231,80.991,532.188,80.951,532.144,80.91z"/>
	<path fill-rule="evenodd" clip-rule="evenodd" fill="#181817" d="M601.841,73.688c-0.054,4.691-0.554,8.686-2.376,12.416
		c-2.176,4.456-5.878,7.133-10.354,8.913c-4.322,1.72-8.867,2.453-13.446,3.023c-8.373,1.044-16.793,1.719-25.128,3.05
		c-5.579,0.891-10.97,2.39-15.705,5.664c-0.804,0.556-1.536,1.219-2.428,1.642c-1.552,0.738-2.7,0.083-2.609-1.63
		c0.329-6.155,1.721-11.991,5.47-17.057c3.04-4.106,7.262-6.243,12.148-7.271c3.862-0.814,7.789-1.165,11.695-1.665
		c5.68-0.728,11.367-1.407,17.051-2.122c3.631-0.456,7.265-0.899,10.886-1.423c2.648-0.384,5.169-1.177,7.38-2.766
		c1.416-1.018,2.508-2.296,3.219-3.894c0.285-0.638,0.553-1.289,1.059-1.795c0.533-0.529,1.185-0.778,1.915-0.548
		c0.678,0.214,0.871,0.828,0.924,1.466C601.67,71.224,601.772,72.758,601.841,73.688z M532.275,105.468
		c0.466-0.244,0.948-0.462,1.396-0.737c5.609-3.452,11.616-5.678,18.24-6.189c3.614-0.279,7.21-0.793,10.812-1.22
		c4.016-0.477,8.028-0.984,12.046-1.458c3.599-0.425,7.182-0.943,10.651-2.027c8.115-2.536,13.336-7.626,14.343-16.387
		c0.209-1.817,0.027-3.612-0.412-5.453c-0.104,0.126-0.169,0.182-0.205,0.25c-1.628,3.073-4.191,5.014-7.44,6.102
		c-3.656,1.223-7.49,1.423-11.271,1.908c-3.929,0.503-7.868,0.932-11.801,1.401c-3.573,0.427-7.146,0.856-10.717,1.302
		c-3.733,0.465-7.451,1.005-11.05,2.165c-4.985,1.608-9.078,4.345-11.559,9.125c-1.808,3.483-2.646,7.245-3.165,11.099
		c0.005,0.07,0.01,0.14,0.015,0.21C532.197,105.528,532.236,105.498,532.275,105.468z"/>
	<path fill-rule="evenodd" clip-rule="evenodd" fill="#E1D930" d="M532.144,105.347c0.519-3.853,1.357-7.614,3.165-11.098
		c2.48-4.78,6.573-7.517,11.559-9.125c3.599-1.16,7.316-1.7,11.05-2.165c3.571-0.445,7.144-0.875,10.717-1.302
		c3.933-0.47,7.872-0.898,11.801-1.401c3.781-0.485,7.615-0.686,11.271-1.908c3.249-1.088,5.812-3.028,7.44-6.102
		c0.036-0.068,0.101-0.124,0.205-0.25c0.439,1.841,0.621,3.636,0.412,5.453c-1.007,8.761-6.228,13.851-14.343,16.387
		c-3.47,1.084-7.053,1.603-10.651,2.027c-4.018,0.474-8.03,0.981-12.046,1.458c-3.603,0.427-7.198,0.94-10.812,1.22
		c-6.624,0.512-12.631,2.737-18.24,6.189c-0.447,0.275-0.93,0.493-1.396,0.737C532.231,105.428,532.188,105.387,532.144,105.347z"/>
	<path fill-rule="evenodd" clip-rule="evenodd" fill="#FDFEFF" d="M532.275,81.032c-0.039,0.029-0.078,0.06-0.117,0.09
		c-0.005-0.07-0.01-0.142-0.015-0.212C532.188,80.951,532.231,80.991,532.275,81.032z"/>
</g>
</svg>
